<svg width="71" height="70" viewBox="0 0 71 70" fill="none" xmlns="http://www.w3.org/2000/svg">
<circle cx="35.5" cy="35" r="35" fill="url(#paint0_linear_202_1534)"/>
<path d="M53.1105 23.9904C53.8018 25.1878 53.7092 26.6136 52.8677 27.711L34.3939 51.8182C33.6321 52.8123 32.3776 53.3191 31.0948 53.0729C29.8387 52.8313 28.8427 51.9156 28.497 50.6841L25.7635 40.9555L25.4789 39.9435L24.7449 39.191L17.6864 31.9595C16.7927 31.0444 16.4977 29.724 16.9166 28.5154C17.3311 27.3206 18.3708 26.4536 19.6527 26.2856L49.767 22.3404C51.1381 22.1604 52.4192 22.793 53.1105 23.9904Z" fill="white"/>
<path d="M25.7636 40.9554L28.497 50.6841C28.8427 51.9156 29.8386 52.8312 31.0948 53.0729C32.3776 53.3191 33.6321 52.8123 34.3939 51.8182L52.8677 27.711C53.7092 26.6136 53.8018 25.1878 53.1105 23.9904L25.4789 39.9435L25.7636 40.9554Z" fill="white"/>
<path d="M36.7231 33.4516C37.0043 33.9385 36.8379 34.5616 36.3503 34.8431L25.7636 40.9554L25.4789 39.9435L24.7449 39.191L35.3316 33.0787C35.8192 32.7973 36.442 32.9647 36.7231 33.4516Z" fill="url(#paint1_linear_202_1534)"/>
<path d="M25.7637 40.9554L36.3504 34.8431C36.838 34.5617 37.0045 33.9386 36.7233 33.4516L25.479 39.9435L25.7637 40.9554Z" fill="url(#paint2_linear_202_1534)"/>
<defs>
<linearGradient id="paint0_linear_202_1534" x1="50.1467" y1="1.96393" x2="20.064" y2="77.7643" gradientUnits="userSpaceOnUse">
<stop stop-color="#747DEF"/>
<stop offset="1" stop-color="#5E3BE1"/>
</linearGradient>
<linearGradient id="paint1_linear_202_1534" x1="32.9077" y1="34.5442" x2="34.0452" y2="36.8252" gradientUnits="userSpaceOnUse">
<stop stop-color="#747DEF"/>
<stop offset="1" stop-color="#5E3BE1"/>
</linearGradient>
<linearGradient id="paint2_linear_202_1534" x1="33.4029" y1="35.4016" x2="34.007" y2="36.5259" gradientUnits="userSpaceOnUse">
<stop stop-color="#747DEF"/>
<stop offset="1" stop-color="#5E3BE1"/>
</linearGradient>
</defs>
</svg>
