<svg width="167" height="154" viewBox="0 0 167 154" fill="none" xmlns="http://www.w3.org/2000/svg">
<path d="M96.1746 86.8473C94.8163 87.1516 93.4933 87.7151 92.2877 88.5025C89.1469 90.5038 87.3196 93.3606 88.2066 94.8827C89.0935 96.4048 92.3586 96.0155 95.4993 94.0142C96.7211 93.2547 97.8065 92.2839 98.6887 91.1619C99.0981 90.6198 99.1715 89.9443 98.8763 89.4394L97.7241 87.462C97.431 86.9555 96.8229 86.7146 96.1746 86.8473Z" fill="#D5D6DB"/>
<path d="M88.2875 59.8543C87.3025 60.0751 86.3431 60.4839 85.4688 61.0549C83.192 62.5057 81.8662 64.5771 82.5088 65.6799C83.1514 66.7827 85.5199 66.5002 87.7965 65.0495C88.6824 64.4985 89.4693 63.7942 90.1091 62.9806C90.4056 62.5876 90.4587 62.0983 90.2447 61.7322L89.4105 60.3004C89.1982 59.9333 88.7576 59.7582 88.2875 59.8543Z" fill="#D5D6DB"/>
<path d="M75.4735 60.9846C75.2543 60.9601 75.0204 61.0186 74.8177 61.1481L69.4695 64.5563C69.0221 64.8405 68.8431 65.3878 69.0701 65.779C69.122 65.8686 69.193 65.9452 69.2792 66.0042L82.4609 75.0891L100.294 63.7244L75.4735 60.9846Z" fill="#029BC5"/>
<path d="M131.85 59.7L83.3184 90.2521L54.6056 101.678L39.9625 104.588L38.3516 101.851L119.247 51.9045C121.657 50.4096 124.343 49.492 127.032 49.2449C128.209 49.143 129.372 49.1822 130.493 49.361C131.487 49.5117 132.43 49.8024 133.294 50.2245C134.258 50.7028 136.093 50.7579 136.687 51.7107C136.689 51.7092 138.091 56.0836 131.85 59.7Z" fill="#E1E6E9"/>
<path d="M83.9617 86.2096L62.9665 119.68C62.7042 120.15 62.8599 120.676 63.3138 120.855C63.5923 120.965 63.9333 120.922 64.2197 120.74L69.5637 117.35C70.5915 116.697 71.5016 115.869 72.2378 114.915L112.954 67.0464L83.9617 86.2096Z" fill="#029BC5"/>
<path d="M30.9821 85.0921C30.6319 84.9724 30.2151 85.0345 29.8633 85.2586L25.4458 88.0719C24.8439 88.455 24.604 89.1914 24.9099 89.7171C24.9682 89.817 25.0439 89.905 25.1346 89.9774L37.5114 99.8898L50.5244 91.7617L30.9821 85.0921Z" fill="#029BC5"/>
<path d="M41.6599 101.677L34.9985 111.006C34.9008 111.14 34.9238 111.308 35.0497 111.382C35.1406 111.435 35.2646 111.425 35.3654 111.358L39.4936 108.742C39.5257 108.721 39.5547 108.696 39.5787 108.667L49.3123 96.832L41.6599 101.677Z" fill="#029BC5"/>
<path d="M129.697 49.7632C128.542 49.5778 127.345 49.5382 126.132 49.6448C124.951 51.2959 124.196 53.1506 123.943 55.024C123.924 55.4003 124.228 55.6712 124.621 55.629C124.743 55.6158 124.864 55.5729 124.973 55.5041L132.581 50.6598C131.692 50.2212 130.721 49.9194 129.697 49.7632Z" fill="#029BC5"/>
<path d="M113.118 58.6714L118.085 55.5344L122.711 63.4035L117.744 66.5404L113.118 58.6714Z" fill="#D5D6DB"/>
<path d="M109.992 61.7837C109.393 62.1629 109.154 62.8917 109.458 63.4114L109.95 64.2534C110.274 64.7598 111.013 64.8489 111.602 64.4522C112.161 64.0744 112.387 63.3877 112.117 62.8807L111.625 62.0387C111.321 61.5194 110.59 61.4052 109.992 61.7837Z" fill="#3A556A"/>
<path d="M105.527 64.5562C104.929 64.9353 104.69 65.6641 104.994 66.1838L105.486 67.0258C105.81 67.5323 106.549 67.6213 107.137 67.2246C107.697 66.8468 107.922 66.1602 107.653 65.6531L107.16 64.8112C106.857 64.2921 106.126 64.1778 105.527 64.5562Z" fill="#3A556A"/>
<path d="M101.062 67.3295C100.464 67.7091 100.226 68.437 100.529 68.9563L101.021 69.7982C101.345 70.3047 102.085 70.3937 102.673 69.997C103.233 69.6193 103.458 68.9326 103.188 68.4256L102.696 67.5836C102.392 67.0639 101.661 66.9502 101.062 67.3295Z" fill="#3A556A"/>
<path d="M96.5975 70.1019C95.9996 70.4816 95.7612 71.2095 96.0648 71.7288L96.5571 72.5707C96.881 73.0772 97.6202 73.1663 98.2085 72.7696C98.7683 72.3918 98.9938 71.7051 98.724 71.1981L98.2317 70.3561C97.9276 69.8365 97.196 69.7228 96.5975 70.1019Z" fill="#3A556A"/>
<path d="M92.1337 72.8746C91.5355 73.2544 91.297 73.9826 91.6008 74.5021L92.0934 75.3444C92.397 75.8637 93.1283 75.9774 93.7267 75.5984C94.325 75.2195 94.5639 74.4913 94.2603 73.972L93.7677 73.1297C93.4648 72.6099 92.7338 72.4954 92.135 72.8738C92.1345 72.8741 92.1342 72.8743 92.1337 72.8746Z" fill="#3A556A"/>
<path d="M87.6689 75.647C87.0707 76.0268 86.8321 76.7551 87.1359 77.2746L87.6285 78.1169C87.9322 78.6362 88.6635 78.7499 89.2618 78.3709C89.8602 77.9919 90.0991 77.2637 89.7954 76.7445L89.3028 75.9021C88.9999 75.3824 88.2689 75.2679 87.6702 75.6462C87.6697 75.6466 87.6691 75.6469 87.6689 75.647Z" fill="#3A556A"/>
<path d="M83.2045 78.4195C82.6063 78.7993 82.3678 79.5275 82.6716 80.047L83.1642 80.8893C83.4686 81.4081 84.2002 81.5207 84.7979 81.1412C85.3946 80.7624 85.633 80.0357 85.3308 79.5171L84.8382 78.6748C84.5346 78.1551 83.8034 78.0408 83.2045 78.4195Z" fill="#3A556A"/>
<path d="M78.7402 81.192C78.1419 81.5718 77.9034 82.3 78.2072 82.8195L78.6998 83.6618C79.0042 84.1806 79.7358 84.2932 80.3336 83.9137C80.9303 83.5349 81.1687 82.8082 80.8664 82.2895L80.3738 81.4472C80.0703 80.9276 79.339 80.8132 78.7402 81.192Z" fill="#3A556A"/>
<path d="M74.2758 83.9644C73.6776 84.3442 73.4391 85.0724 73.7429 85.5919L74.2354 86.4342C74.5399 86.953 75.2715 87.0656 75.8692 86.6861C76.4659 86.3073 76.7043 85.5806 76.402 85.062L75.9095 84.2197C75.6057 83.7002 74.8744 83.5859 74.2758 83.9644Z" fill="#3A556A"/>
<path d="M69.81 86.7376C69.2116 87.1166 68.9727 87.8448 69.2764 88.3641L69.277 88.3651L69.7696 89.2075C70.0741 89.7263 70.8057 89.8389 71.4034 89.4594C72.0001 89.0805 72.2385 88.3539 71.9362 87.8352L71.4436 86.9929C71.1401 86.4732 70.4089 86.3589 69.81 86.7376Z" fill="#3A556A"/>
<path d="M65.3466 89.5094C64.7483 89.8883 64.5094 90.6165 64.813 91.1358L64.8137 91.1368L65.3063 91.9792C65.6107 92.4979 66.3423 92.6105 66.94 92.231C67.5368 91.8522 67.7752 91.1256 67.4729 90.6069L66.9803 89.7646C66.6765 89.2451 65.9453 89.1308 65.3466 89.5094Z" fill="#3A556A"/>
</svg>
